<?xml version="1.0" encoding="UTF-8" standalone="no"?>
<svg
   viewBox="0 0 682.66669 682.66669"
   height="682.66669"
   width="682.66669"
   xml:space="preserve"
   id="svg2"
   version="1.1"
   inkscape:version="1.1.2 (0a00cf5339, 2022-02-04)"
   sodipodi:docname="JoplinLetterBlue.svg"
   xmlns:inkscape="http://www.inkscape.org/namespaces/inkscape"
   xmlns:sodipodi="http://sodipodi.sourceforge.net/DTD/sodipodi-0.dtd"
   xmlns="http://www.w3.org/2000/svg"
   xmlns:svg="http://www.w3.org/2000/svg"><sodipodi:namedview
   id="namedview13"
   pagecolor="#505050"
   bordercolor="#ffffff"
   borderopacity="1"
   inkscape:pageshadow="0"
   inkscape:pageopacity="0"
   inkscape:pagecheckerboard="1"
   showgrid="false"
   inkscape:zoom="0.77490232"
   inkscape:cx="366.49781"
   inkscape:cy="360.69062"
   inkscape:window-width="1366"
   inkscape:window-height="708"
   inkscape:window-x="0"
   inkscape:window-y="30"
   inkscape:window-maximized="1"
   inkscape:current-layer="svg2" />
  <defs
   id="defs6">
    <linearGradient
   id="linearGradient26"
   spreadMethod="pad"
   gradientTransform="matrix(-4387.91,4387.91,4387.91,4387.91,4753.95,366.05)"
   gradientUnits="userSpaceOnUse"
   y2="0"
   x2="1"
   y1="0"
   x1="0">
      <stop
   id="stop22"
   offset="0"
   style="stop-opacity:1;stop-color:#004caf" />
      <stop
   id="stop24"
   offset="1"
   style="stop-opacity:1;stop-color:#1f95f8" />
    </linearGradient>
  
    
  
      
      
    <clipPath
   clipPathUnits="userSpaceOnUse"
   id="clipPath829"><path
     id="path831"
     style="fill:#ffffff;fill-opacity:1;fill-rule:nonzero;stroke:none;stroke-width:0.999997"
     d="M 3961.59,4435.23 H 2570.18 c -13.15,0 -23.78,-10.64 -23.78,-23.77 v -441.84 c 0,-14.87 12.04,-26.92 26.92,-26.92 h 190.77 c 77.16,0 139.73,-59.35 146.43,-134.77 V 3505 3336.23 1728.75 1717.36 h -0.052 c 0.48,-16.84 -0.1898,-33.4 -1.83,-49.71 -0.18,-2.38 -0.5003,-4.73 -0.7902,-7.09 -1.0998,-9.53 -2.3199,-19.01 -4.17,-28.29 -1.0098,-5.29 -2.4399,-10.44 -3.7098,-15.65 -1.71,-6.93 -3.09,-13.97 -5.22,-20.75 -12.5802,-40.27 -32.4702,-77.62 -59.9802,-110.5 -1.0098,-1.17 -2.2599,-2.25 -3.2598,-3.41 -8.3901,-9.72 -17.2002,-19.19 -26.9502,-28.06 -9.84,-8.95 -20.2599,-17.27 -31.2099,-25 -77.8401,-55.14 -182.61,-79.4 -299.67,-68.2 -149.2599,14.03 -297.3399,81.72 -417.03,190.62 -119.6701,108.89 -194.08,243.62 -209.4799,379.41 -13.8501,121.48 22.5498,228.38 102.42,301.05 0.21,0.1598 0.3997,0.3098 0.5602,0.48 3.09,2.77 6.4901,5.2 9.6701,7.87 57.16,47.89 131.6701,76.91 216.7,84.91 0.96,0.09 1.8801,0.24 2.79,0.3203 8.9499,0.79 18.0699,1.15 27.27,1.49 4.8099,0.1598 9.5601,0.5003 14.4399,0.54 1.62,0.023 3.1602,0.1898 4.7802,0.1898 2.8998,0 5.91,-0.3803 8.8098,-0.42 13.4001,-0.21 26.9001,-0.7601 40.6701,-1.9401 1.74,-0.1402 3.3999,-0.08 5.19,-0.24 1.2699,-0.1297 2.5299,-0.4102 3.8001,-0.54 78,-7.82 155.2299,-31.11 228.5199,-66.3999 1.53,-0.068 3.3,-0.54 5.5099,-1.7601 22.34,-12.3399 26.6201,0.9 27.2801,9.6501 v 382.2399 282.8201 c 0,19.05 -13.2501,35.8999 -31.83,39.99 -394.7601,86.88 -782.08,-3.5501 -1055.38,-252.3401 -238.7499,-217.1799 -354.24,-530.5799 -316.8201,-859.7899 33.39,-293.23 183.9102,-574.94 423.88,-793.33 233.8901,-212.79003 531.69,-345.86006 838.8801,-374.80106 42.33,-3.918 84.8601,-5.93797 126.36,-5.93797 293.3799,0 565.6099,100.59802 766.54,283.37903 190.3401,173.3 304.35,411.27 321.0799,670.16 l 1.55,1697.91 h 0.1703 v 453.97 h 0.06 v 7.92 c 1.72,80.1199 67.05,144.58 147.61,144.58 h 190.77 c 14.8599,0 26.9199,12.05 26.9199,26.9199 v 441.84 c 0,13.13 -10.6299,23.77 -23.7799,23.77" /></clipPath></defs>
  <g
   id="g14"
   transform="matrix(0.13333333,0,0,-0.13333333,0,682.66667)"
   mask="none"
   clip-path="url(#clipPath829)">
        <g
   clip-path="url(#clipPath20)"
   id="g16">
          <path
   id="path28"
   style="fill:url(#linearGradient26);fill-opacity:1;fill-rule:nonzero;stroke:none"
   d="M 3873.89,0 H 1246.11 C 560.754,0 0,560.75 0,1246.11 V 3873.88 C 0,4559.25 560.754,5120 1246.11,5120 H 3873.89 C 4559.25,5120 5120,4559.25 5120,3873.88 V 1246.11 C 5120,560.75 4559.25,0 3873.89,0" />
        </g>
      </g>
</svg>
