<svg xmlns="http://www.w3.org/2000/svg" xmlns:xlink="http://www.w3.org/1999/xlink" viewBox="0 0 4971.36 972.7"><defs><style>.cls-1,.cls-3{fill:#6b016a;}.cls-2{fill:url(#linear-gradient);}.cls-3{opacity:0;}.cls-4{opacity:0.1;}.cls-5{fill:#fff;}.cls-6{opacity:0.05;}.cls-7{opacity:0.15;}</style><linearGradient id="linear-gradient" x1="-1553.14" y1="-219.8" x2="-935.39" y2="850.19" gradientTransform="translate(2078.94 -33.24)" gradientUnits="userSpaceOnUse"><stop offset="0.16" stop-color="#c126c6"></stop><stop offset="0.46" stop-color="#860c86"></stop><stop offset="0.69" stop-color="#6b016a"></stop><stop offset="1" stop-color="#5b51d8"></stop></linearGradient></defs><g id="Layer_2" data-name="Layer 2"><g id="Layer_1-2" data-name="Layer 1"><polygon class="cls-1" points="981.26 785.8 873.78 972.7 530.38 972.7 418.95 778.95 0 50.53 225.04 50.53 643.99 778.95 752.27 778.95 333.33 50.53 558.38 50.53 868.59 589.9 775.55 751.49 884.53 617.59 894.66 635.21 977.32 778.95 981.26 785.8"></polygon><polygon class="cls-1" points="1026.46 282.05 1022.99 288.08 914.03 477.88 668.25 50.53 893.3 50.53 1026.46 282.05"></polygon><polygon class="cls-1" points="1404.17 50.53 1148.73 494.65 1036.19 690.3 959.07 556.2 1091.04 394.35 1227.79 226.62 1276.43 250.35 1287.13 50.53 1404.17 50.53"></polygon><polygon class="cls-1" points="1274.01 0 1272.03 37.09 1271.32 50.53 1261.99 224.76 1238.59 213.36 1220.65 204.6 884.53 617.59 884.29 617.18 880.05 609.81 868.97 590.56 868.74 590.17 868.59 589.9 1119.01 155.03 1109.95 150.6 1103.67 147.54 1079.9 135.95 1163.76 77.22 1201.87 50.53 1274.01 0"></polygon><polygon class="cls-2" points="981.26 785.8 873.78 972.7 530.38 972.7 418.95 778.95 0 50.53 225.04 50.53 643.99 778.95 752.27 778.95 333.33 50.53 558.38 50.53 868.59 589.9 775.55 751.49 884.53 617.59 894.66 635.21 977.32 778.95 981.26 785.8"></polygon><polygon class="cls-2" points="1026.46 282.05 1022.99 288.08 914.03 477.88 668.25 50.53 893.3 50.53 1026.46 282.05"></polygon><polygon class="cls-2" points="1404.17 50.53 1148.73 494.65 1036.19 690.3 959.07 556.2 1091.04 394.35 1227.79 226.62 1276.43 250.35 1287.13 50.53 1404.17 50.53"></polygon><polygon class="cls-2" points="1274.01 0 1272.03 37.09 1271.32 50.53 1261.99 224.76 1238.59 213.36 1220.65 204.6 884.53 617.59 884.29 617.18 880.05 609.81 868.97 590.56 868.74 590.17 868.59 589.9 1119.01 155.03 1109.95 150.6 1103.67 147.54 1079.9 135.95 1163.76 77.22 1201.87 50.53 1274.01 0"></polygon><path class="cls-3" d="M900.2,644.85q-23.34,6-47,11.2l31.3-38.45,10.13,17.61Z"></path><path class="cls-3" d="M868.59,589.9l-38,66a1442.41,1442.41,0,0,1-179-52L333.33,50.53H382.7A1460.31,1460.31,0,0,0,684,269Z"></path><path class="cls-3" d="M508.42,543.25A1460.14,1460.14,0,0,1,129.9,276.38L0,50.53H225Z"></path><path class="cls-3" d="M966.61,386.3,914,477.89,834.91,340.33Q899.29,366.36,966.61,386.3Z"></path><path class="cls-3" d="M1184.27,432.83l-35.55,61.82-47.55,82.68q-52.45,22-106.93,40L959.07,556.2l116.06-142.32Q1129,425.37,1184.27,432.83Z"></path><path class="cls-3" d="M915.86,672.08Q882.68,666.8,850,660l3.22-4q23.63-5.22,47-11.2Z"></path><path class="cls-3" d="M1101.17,577.33l-62.7,109-2.28,4L1033.7,686l-39.46-68.62Q1048.68,599.4,1101.17,577.33Z"></path><path class="cls-3" d="M1054.11,409.23,884.53,617.6l-.24-.42-4.24-7.36L869,590.56l-.23-.39-.15-.27L983.08,391.07Q1018.24,401,1054.11,409.23Z"></path><g class="cls-4"><path class="cls-5" d="M900.2,644.85q-23.34,6-47,11.2l31.3-38.45,10.13,17.61Z"></path><path class="cls-5" d="M868.59,589.9l-38,66a1442.41,1442.41,0,0,1-179-52L333.33,50.53H382.7A1460.31,1460.31,0,0,0,684,269Z"></path><path class="cls-5" d="M508.42,543.25A1460.14,1460.14,0,0,1,129.9,276.38L0,50.53H225Z"></path><path class="cls-5" d="M966.61,386.3,914,477.89,834.91,340.33Q899.29,366.36,966.61,386.3Z"></path><path class="cls-5" d="M1184.27,432.83l-35.55,61.82-47.55,82.68q-52.45,22-106.93,40L959.07,556.2l116.06-142.32Q1129,425.37,1184.27,432.83Z"></path><path class="cls-5" d="M915.86,672.08Q882.68,666.8,850,660l3.22-4q23.63-5.22,47-11.2Z"></path><path class="cls-5" d="M1101.17,577.33l-62.7,109-2.28,4L1033.7,686l-39.46-68.62Q1048.68,599.4,1101.17,577.33Z"></path><path class="cls-5" d="M1054.11,409.23,884.53,617.6l-.24-.42-4.24-7.36L869,590.56l-.23-.39-.15-.27L983.08,391.07Q1018.24,401,1054.11,409.23Z"></path></g><path class="cls-3" d="M915.86,672.08Q882.68,666.8,850,660l3.22-4q23.63-5.22,47-11.2Z"></path><path class="cls-3" d="M592.42,689.3q-27.18,1-54.61,1A1471.5,1471.5,0,0,1,361.92,679.8l-232-403.42A1460.14,1460.14,0,0,0,508.42,543.25Z"></path><path class="cls-3" d="M830.61,655.86l-3.26,5.66q-64.5,13-131,20.25L651.59,603.9A1442.41,1442.41,0,0,0,830.61,655.86Z"></path><path class="cls-3" d="M1101.17,577.33l-62.7,109-2.28,4L1033.7,686l-39.46-68.62Q1048.68,599.4,1101.17,577.33Z"></path><g class="cls-6"><path class="cls-5" d="M915.86,672.08Q882.68,666.8,850,660l3.22-4q23.63-5.22,47-11.2Z"></path><path class="cls-5" d="M592.42,689.3q-27.18,1-54.61,1A1471.5,1471.5,0,0,1,361.92,679.8l-232-403.42A1460.14,1460.14,0,0,0,508.42,543.25Z"></path><path class="cls-5" d="M830.61,655.86l-3.26,5.66q-64.5,13-131,20.25L651.59,603.9A1442.41,1442.41,0,0,0,830.61,655.86Z"></path><path class="cls-5" d="M1101.17,577.33l-62.7,109-2.28,4L1033.7,686l-39.46-68.62Q1048.68,599.4,1101.17,577.33Z"></path></g><path class="cls-3" d="M684,269A1460.31,1460.31,0,0,1,382.7,50.53H558.37Z"></path><path class="cls-3" d="M1026.46,282l-3.47,6L966.61,386.3q-67.26-19.89-131.7-46L668.24,50.53H893.3Z"></path><path class="cls-3" d="M1404.16,50.53l-219.88,382.3h0q-55.26-7.43-109.14-18.95L1091,394.36l136.74-167.74,48.65,23.73,10.7-199.82Z"></path><path class="cls-3" d="M1274,0l-2,37.09-.71,13.44L1262,224.76l-23.4-11.4-17.94-8.76L1054.11,409.23q-35.86-8.21-71-18.16L1119,155,1110,150.6l-6.28-3.06L1079.9,136l83.86-58.74,38.11-26.68Z"></path><g class="cls-7"><path class="cls-5" d="M684,269A1460.31,1460.31,0,0,1,382.7,50.53H558.37Z"></path><path class="cls-5" d="M1026.46,282l-3.47,6L966.61,386.3q-67.26-19.89-131.7-46L668.24,50.53H893.3Z"></path><path class="cls-5" d="M1404.16,50.53l-219.88,382.3h0q-55.26-7.43-109.14-18.95L1091,394.36l136.74-167.74,48.65,23.73,10.7-199.82Z"></path><path class="cls-5" d="M1274,0l-2,37.09-.71,13.44L1262,224.76l-23.4-11.4-17.94-8.76L1054.11,409.23q-35.86-8.21-71-18.16L1119,155,1110,150.6l-6.28-3.06L1079.9,136l83.86-58.74,38.11-26.68Z"></path></g><path class="cls-1" d="M1946.36,569.61q0,69.84-26.39,121.06t-79.54,79.16q-53.17,27.93-133.09,27.94-114.87,0-175-58.59t-60.15-166.47V235.91h150.56V561.07q0,59,22.11,85.37t64.8,26.38q45.78,0,66.36-26.77t20.56-85.75V235.91h149.78Z"></path><path class="cls-1" d="M2425.17,621.6q0,45-22.89,85.37t-70.62,65.58q-47.73,25.22-123.78,25.22-38,0-66.35-3.5A300.09,300.09,0,0,1,2088.37,783a397.59,397.59,0,0,1-51.22-20.18V629.36A468.28,468.28,0,0,0,2128,663.9q45.78,12,83,12,22.5,0,36.48-5.44t20.95-14.74a35.32,35.32,0,0,0-3.1-45.79q-10.09-10.07-31.82-21t-58.21-27.16q-41.13-19.4-71.39-40.74t-46.57-52.39q-16.29-31-16.29-78.38,0-53.55,26.38-89.63t73.34-54.33q47-18.23,109-18.23,54.31,0,97.79,12t77.6,27.55l-45.78,115.63a485.89,485.89,0,0,0-70.24-26q-34.53-9.69-64-9.7-19.41,0-31.82,4.65t-18.24,12.81a30.65,30.65,0,0,0-5.82,18.24q0,13.2,10.09,23.28t33.76,22.12q23.67,12,64.8,30.65,40.35,17.86,68.68,39.19T2410,549Q2425.18,578.14,2425.17,621.6Z"></path><path class="cls-1" d="M2839.58,790h-329V235.91h329V356.19H2660.31v86.92h166.08V563.4H2660.31V668.17h179.27Z"></path><path class="cls-1" d="M3342.46,235.91,3144.56,790h-69.84l-197.89-554.1h73l124.94,355.43q8.54,22.51,14.75,43.46t11.25,40q5,19,8.92,37.64,3.87-18.63,8.93-38T3130.21,634q6.59-21,14.35-44.23l124.17-353.88Z"></path><path class="cls-1" d="M3573.71,790H3373.49V749.65l65.19-14.74V291.78l-65.19-15.52V235.91h200.22v40.35l-65.19,15.52V734.91l65.19,14.74Z"></path><path class="cls-1" d="M3833.68,235.91q69.06,0,113.69,17.46t66.35,52.38q21.72,34.92,21.73,87.7,0,44.24-16.29,73.72t-41.52,46.95a230.92,230.92,0,0,1-53.16,27.55L4076.58,790H3995.1L3860.84,561.07h-110.2V790H3680.8V235.91Zm-3.88,60.53h-79.16V502.09h83q67.52,0,98.56-26.77t31-78.77q0-36.46-14.36-58.2t-43.84-31.82Q3875.58,296.45,3829.8,296.44Z"></path><path class="cls-1" d="M4511.17,790,4444.43,618.5H4224.81l-66,171.51h-70.62l216.52-556.43h62.86L4583.34,790ZM4361.39,388.79q-2.32-6.21-7.76-22.51t-10.48-33.75q-5.06-17.47-8.15-26.78-3.89,15.54-8.14,31.43t-8.54,29.1Q4314,379.5,4311,388.79l-62.86,167.63h175.38Z"></path><path class="cls-1" d="M4659.39,790V235.91h69.84v492h242.13V790Z"></path></g></g></svg>